<svg version="1.2" xmlns="http://www.w3.org/2000/svg" viewBox="0 0 128 128" width="128" height="128">
	<style>
		.s0 { fill: #000000 } 
	</style>
	<path id="Path 0" fill-rule="evenodd" class="s0" d="m23.54 48.46c0.02 0.86 0.06 1.72 0.06 3.07 0 0.37-0.04 0.55 0.15 0.72q0.12 0.11 0.26 0.15c0.19 0.06 0.36 0.04 0.36 0.04l8.08 0.06c0 0 0.39-0.04 0.61-0.25 0.21-0.2 0.27-0.55 0.27-0.55l0.03-1.67c0.02-0.92 0.05-1.79 0.09-1.94q0.05-0.26 0.55-0.45c0.31-0.12 0.73-0.17 1.14-0.14 0.35 0.03 0.85 0.15 1.11 0.28 0.39 0.19 0.46 0.28 0.45 0.57-0.01 0.2-0.16 0.72-0.35 1.17-0.18 0.45-0.53 1.13-0.79 1.52-0.26 0.38-0.71 0.95-1 1.26-0.29 0.32-0.9 0.8-1.35 1.08-0.45 0.28-1.26 0.67-1.81 0.87-0.78 0.29-1.29 0.39-2.39 0.47-0.77 0.06-3.08 0.11-5.14 0.11-3.52 0-3.75 0.02-4.11 0.24q-0.39 0.23-0.49 0.67c-0.08 0.33-0.07 0.51 0.06 0.76 0.09 0.17 0.31 0.42 0.49 0.55 0.31 0.22 0.57 0.23 18.18 0.32l1.16 0.29c0.65 0.17 1.41 0.39 1.7 0.49 0.28 0.11 0.97 0.41 1.51 0.67 0.55 0.27 1.05 0.53 1.11 0.58 0.07 0.06 0.43 0.31 0.82 0.56 0.38 0.24 1.12 0.86 1.64 1.37 0.52 0.5 1.25 1.33 1.63 1.85 0.37 0.51 0.93 1.4 1.22 1.98 0.3 0.58 0.63 1.29 0.73 1.58 0.1 0.29 0.26 0.79 0.35 1.11 0.1 0.32 0.24 0.9 0.32 1.28 0.07 0.39 0.17 1.23 0.21 1.87 0.05 0.69 0.03 1.71-0.05 2.51-0.08 0.74-0.2 1.58-0.26 1.86-0.07 0.29-0.23 0.87-0.36 1.29-0.14 0.42-0.51 1.28-0.82 1.92-0.31 0.65-0.86 1.57-1.23 2.05-0.36 0.48-0.91 1.15-1.23 1.49-0.32 0.33-1.01 0.94-1.54 1.35-0.53 0.41-1.17 0.86-1.43 1-0.25 0.14-0.54 0.3-0.64 0.37-0.1 0.06-0.57 0.28-1.05 0.5-0.48 0.22-1.06 0.45-1.28 0.53-0.23 0.07-0.91 0.24-1.52 0.36-1.07 0.23-1.63 0.24-32.92 0.23l-0.06-0.38c-0.04-0.2 0.04-0.98 0.17-1.72 0.12-0.74 0.38-1.76 0.57-2.27 0.19-0.52 0.49-1.23 0.66-1.58 0.18-0.35 0.52-0.93 0.75-1.28 0.23-0.36 0.56-0.8 0.74-1 0.18-0.19 0.32-0.37 0.32-0.4 0-0.04 0.27-0.34 0.61-0.69 0.34-0.34 0.91-0.85 1.26-1.12 0.35-0.27 0.88-0.64 1.17-0.83 0.29-0.18 0.94-0.54 1.46-0.78 0.51-0.25 1.25-0.56 1.63-0.68 0.39-0.12 1.1-0.31 1.58-0.42 0.76-0.16 2.05-0.37 19.65-0.5l0.45-0.24c0.3-0.34 0.34-0.62 0.27-0.97-0.04-0.22-0.18-0.37-0.33-0.51-0.14-0.15-0.47-0.32-0.72-0.38-0.29-0.06-3.34-0.09-7.71-0.06-3.98 0.03-8.02 0-8.99-0.06-0.96-0.07-2.14-0.22-2.62-0.34-0.48-0.12-1.14-0.31-1.46-0.42-0.32-0.11-1.03-0.42-1.58-0.68-0.54-0.26-1.41-0.79-1.92-1.18-0.52-0.38-1.36-1.12-1.87-1.64-0.51-0.51-1.17-1.28-1.47-1.69-0.29-0.42-0.76-1.23-1.05-1.81-0.29-0.58-0.61-1.29-0.71-1.58-0.11-0.29-0.27-0.79-0.37-1.11-0.09-0.32-0.24-0.9-0.33-1.28-0.1-0.45-0.15-1.43-0.15-2.74 0.01-1.13 0.07-2.36 0.15-2.75 0.07-0.38 0.3-1.2 0.5-1.81 0.2-0.61 0.53-1.45 0.74-1.86 0.21-0.42 0.68-1.24 1.05-1.81 0.38-0.58 1.05-1.44 1.51-1.91 0.46-0.48 1.25-1.18 1.76-1.57 0.52-0.4 1.46-0.99 2.1-1.32 0.65-0.34 1.7-0.77 2.34-0.97 0.64-0.2 1.69-0.44 2.33-0.52 0.9-0.13 3.2-0.17 18.5-0.19l0.08 0.32c0.04 0.18 0.05 1.41 0.03 2.73-0.03 1.33-0.09 2.46-0.14 2.51-0.05 0.06-0.32 0.03-0.59-0.07-0.26-0.09-0.88-0.16-1.36-0.17-0.48 0-1.04 0.05-1.62 0.22l-0.03-1.07c-0.04-0.86-0.09-1.13-0.29-1.4-0.13-0.18-0.37-0.39-0.52-0.47-0.21-0.11-1.29-0.15-4.02-0.15-2.27 0-3.87 0.04-4.08 0.12-0.2 0.06-0.47 0.29-0.61 0.5-0.23 0.32-0.27 0.52-0.27 1.48 0 0.71-0.02 1.27-0.12 1.36-0.1 0.11-0.9 0.04-3.14 0.04-2.79-0.01-3 0.01-3.28 0.22-0.26 0.21-0.29 0.32-0.33 1.26-0.02 0.57 0 1.15 0.03 1.29 0.04 0.15 0.15 0.29 0.25 0.32 0.09 0.04 0.24 0.04 0.32 0 0.09-0.03 0.17-0.41 0.21-1.02 0.04-0.53 0.1-1.02 0.15-1.11 0.06-0.11 1.41-0.21 2.82-0.14 1.59 0.07 3.04-0.14 3.05 0.28zm5.37-3.67c3.09 0 3.36 0.02 3.41 0.21 0.03 0.11 0.06 1.52 0.08 3.12 0.01 1.61-0.01 3.04-0.06 3.18-0.04 0.15-0.14 0.27-0.22 0.27-0.08 0-1.79 0.01-3.79 0.03-3.52 0.02-3.65 0.01-3.82-0.21-0.15-0.2-0.18-0.75-0.19-3.27 0-2.35 0.07-3.15 0.21-3.23 0.2-0.11 2.53-0.1 4.38-0.1zm-2.83 3.47c0.09 0.11 0.57 0.62 1.05 1.11 0.48 0.5 0.96 0.91 1.06 0.91 0.1 0 0.64-0.45 1.19-0.99 0.56-0.55 1.02-1.09 1.02-1.2 0-0.11-0.45-0.65-1-1.2-0.54-0.54-1.06-1-1.14-1.02-0.08-0.02-0.64 0.47-1.25 1.07-1.02 1.02-1.09 1.12-0.93 1.32zm18.03-2.32c0.64 0.02 1.22 0.08 1.28 0.14q0.12 0.1-0.05 0.33c-0.1 0.12-0.98 1.05-1.96 2.05-0.98 1-1.78 1.89-1.78 1.97 0 0.08 0.74 0.88 1.64 1.78 0.91 0.89 1.76 1.78 1.9 1.96 0.21 0.27 0.22 0.35 0.1 0.47-0.1 0.09-0.73 0.13-3.74 0.13l-2.11-2.13c-1.5-1.52-2.08-2.17-2.02-2.3 0.05-0.09 1.01-1.11 4.19-4.37l0.69-0.03c0.38-0.02 1.22-0.02 1.86 0z"/>
	<path id="Hello, Python!" class="s0" aria-label="Hello,
Python!"  d="m65.8 45.5c-0.8-0.1-0.8 0.6-0.8 0.6-0.3 2.4-0.6 4.7-0.7 6.9 0 0.1 0 0.1 0 0.1h-5c-0.1-2.3-0.1-4.7-0.2-7-0.1-0.8-1.6-0.6-2.4-0.6-0.8 0.1-0.7 0.8-0.7 0.8-0.1 5.1-0.3 9.3-0.3 13.5 0 0.5-0.1 0.9 0 1.1 0.1 1.3 1.4 1.3 2.4 1.2 1.1-0.1 1.1-1 1.1-1 0-1.6 0-3.2 0.1-4.8 1.4 0.2 3.7 0.4 4.9 0.4 0 2.4 0 3.4 0.2 4.4 0.3 1.3 1.6 1.1 2.6 0.9 0.5-0.1 0.7-0.4 0.9-0.6 0.1-0.3 0.1-0.5 0.1-0.5-0.4-4.8-0.4-9.7 0.1-14.5 0.1-0.7-1.5-0.8-2.3-0.9zm6.7 4.8c-1.3 0.4-2.2 1.2-2.9 2.3-1 1.5-1.1 3.6-0.7 5.3 0.5 1.8 1.8 3.4 3.7 4 0.8 0.3 1.7 0.3 2.6 0.1 1.4-0.2 3.3-1.4 3.3-2.9 0-1.3-1.8-2.2-2.6-1-0.4 0.7-1.1 1-1.7 0.9-1.6-0.1-2.1-1.5-2.1-2.9 0.6 0 1.6 0.1 2.7 0.1 1.6 0.1 3.3 0.1 3.6 0 0.3-0.1 0.4-0.4 0.5-0.7 0.4-4-2.8-6.3-6.4-5.2zm0.1 3.6c0.7-1.6 2.8-2 3.1 0-1 0-2.1 0-3.1 0zm9.6-7.6c0-0.8-1.5-0.6-2.4-0.6-0.7 0-0.7 0.7-0.7 0.7 0 0-0.5 13.3-0.3 14.6 0.2 1.3 1.5 1.2 2.5 1.1 1-0.1 1-1.1 1-1.1zm4 0c0-0.7-1.5-0.6-2.4-0.6-0.7 0.1-0.7 0.7-0.7 0.7 0 0-0.5 13.3-0.3 14.6 0.2 1.3 1.5 1.3 2.5 1.1 1-0.1 1-1 1-1zm5.8 15.9c3 0 5.5-2.8 5.5-6.1 0-3.3-2.5-6-5.5-6-3.1 0-5.5 2.7-5.5 6 0 3.3 2.4 6.1 5.5 6.1zm0-8.9c1.3 0 2.4 1.3 2.4 2.8 0 1.5-1.1 2.8-2.4 2.8-1.3 0-2.4-1.3-2.4-2.8 0-1.5 1.1-2.8 2.4-2.8zm5.6 8.9c0 0.2 0.2 0.2 0.8 0.4 0.8 0.1 1.2-0.5 1.5-1 0.3-0.6 0.8-1.9 1.1-2.6 0.1-0.5 0.1-0.8-0.4-0.9-0.3-0.1-0.8-0.2-1.3-0.2-0.9 0-1 0.7-1 0.7zm-33.8 4.4c-1.1-0.6-2.5-1-3.9-1-0.5 0-1.1 0-1.7 0-0.5-0.1-1.1 0-1.5 0-0.8 0-0.7 0.7-0.7 0.7 0 0-0.1 3.4-0.2 6.8-0.1 3.6-0.2 7.2-0.2 7.9 0.2 1.3 1.4 1.2 2.5 1.1 1 0 1.1-1 1.1-1 0-0.9 0-1.8 0-2.8 1.7-0.2 3.2-0.9 4.5-1.8 3.3-2.6 3.9-7.8 0.1-9.9zm-4.6 7.9c0-1.7 0-3.6 0-5.3 5.1-0.4 4.7 4.9 0 5.3zm16-4.6c-0.8 0.1-0.7 1-0.7 1 0 0 0 1.2-0.1 3-0.1 3.1-3.9 4.9-4.3 1.2-0.2-1.5 0.1-3.1 0.2-4.5 0-0.6-1.5-0.6-2.3-0.6-0.8-0.1-1 0.6-1 0.6-0.1 0.7-0.2 1.4-0.3 2.2-0.2 3.2 0.6 6.5 4 7.3 1.3 0.2 2.6-0.1 3.6-1.2 0 1.1 0.1 2.5-0.1 3.5-0.5 2.5-3.6 1.8-4.9 1.3-1.4-0.2-2 2.5-0.8 3.2 1.4 0.8 3.2 0.9 4.6 0.6 2.2-0.4 3.6-2 4.2-3.8 0.3-1 0.4-1.9 0.3-13 0-1-1.6-0.9-2.4-0.8zm7.1 8.9c-0.4-1.1-0.2-3.3-0.2-4.4 1.5 0.2 2.7 0.3 3 0.2 0.7-0.1 0.7-1.4 0.6-2.4 0-1.1-0.5-1.1-0.5-1.1-1-0.1-1.9-0.1-2.9-0.1 0.1-1.5 0.3-3 0.2-4.6 0-1-1.5-0.8-2.3-0.8-0.5 0.1-0.9 0.4-0.9 0.8-0.1 1.4-0.2 2.9-0.2 4.5-0.5 0-1 0-1.4 0-0.2 0-0.3 1.3-0.2 2.3 0.1 0.7 0.3 0.9 0.9 0.9 0.1 0 0.2 0 0.3 0 0 1.4-0.1 2.6 0 3.7 0.3 2.4 1.4 4.7 3.9 5 0.9 0.2 2 0 2.8-0.7 0.4-0.5 0.6-1.3 0.5-2.1-0.1-0.8-0.6-1-1.3-0.7-1 0.3-1.8 0.5-2.3-0.5zm7.9-7.7c0-1.5 0.1-3.1 0.2-4.7 0-0.7-1.5-0.8-2.3-0.8-0.9 0-1.1 0.6-1.1 1.2-0.4 4.8-0.4 9.7-0.1 14.3 0.3 1.3 1.5 1.1 2.6 0.9 0.5-0.1 0.9-0.5 0.9-1.1 0-1.3-0.1-2.8-0.2-4.1-0.1-3.8 4.1-4.5 3.6 0-0.1 1.4-0.2 2.7-0.2 4.1 0.1 1.4 1.4 1.3 2.4 1.2 1 0 1.1-1 1.1-1l0.2-4.1c0.6-5.8-3.6-7.8-7.1-5.9zm12.8 11.1c3 0 5.5-2.7 5.5-6.1 0-3.3-2.5-6-5.5-6-3 0-5.5 2.7-5.5 6 0 3.4 2.5 6.1 5.5 6.1zm0-8.9c1.3 0 2.4 1.3 2.4 2.8 0 1.6-1.1 2.8-2.4 2.8-1.3 0-2.3-1.2-2.3-2.8 0-1.5 1-2.8 2.3-2.8zm9.1-2.4v-0.7c0-0.5-1.6-0.4-2.4-0.4-0.8 0-0.7 0.5-0.7 0.5-0.1 0.6-0.5 10.5-0.3 11 0.1 1 1.4 0.9 2.5 0.8 1-0.1 1-0.8 1-0.8v-4.6c0.2-4.5 4.1-4.2 4.6-1.3 0.1 0.9 0 1.9-0.1 2.9-0.1 1-0.3 2.7 0.2 3.4 0.5 0.6 1.5 0.5 2.3 0.4 1-0.1 1.1-1.1 1.1-1.5v-3.6c0-2.2-0.3-3.7-0.9-4.7-1.6-2.4-5.1-2.3-7.3-1.4zm8.7 6.5c0 0.5 1.6 0.5 2.4 0.5 0.8 0 0.7-0.5 0.7-0.5 0.4-2.8 0.5-5.7 0.5-8.8 0-1.1 0-1.9 0-2.2-0.3-1-1.5-0.9-2.5-0.8-1 0.2-1.1 0.9-1.1 0.9 0.2 3.7 0.2 7.3 0 10.9zm3.4 3.2c0-0.9-0.9-1.6-1.9-1.6-1 0-1.8 0.7-1.8 1.6 0 0.9 0.8 1.6 1.8 1.6 1 0 1.9-0.7 1.9-1.6z"/>
</svg>